<svg width="800" height="800" viewBox="0 0 800 800" fill="none" xmlns="http://www.w3.org/2000/svg">
<path d="M444.444 179.667C439.828 172.006 433.311 165.668 425.523 161.269C417.736 156.869 408.944 154.557 400 154.557C391.056 154.557 382.264 156.869 374.477 161.269C366.689 165.668 360.172 172.006 355.556 179.667L282.444 304.889C338.298 332.774 385.886 374.785 420.484 426.749C455.081 478.713 475.484 538.823 479.667 601.111H428.333C424.158 547.719 406.114 496.342 375.985 452.066C345.857 407.789 304.689 372.147 256.556 348.667L188.889 465.667C215.948 477.802 239.522 496.546 257.443 520.175C275.363 543.804 287.056 571.559 291.444 600.889H173.556C172.157 600.79 170.806 600.345 169.623 599.593C168.44 598.841 167.463 597.807 166.779 596.583C166.096 595.36 165.727 593.985 165.708 592.584C165.688 591.182 166.018 589.798 166.667 588.556L199.333 533C188.266 523.766 175.617 516.613 162 511.889L129.667 567.444C126.301 573.218 124.115 579.603 123.238 586.228C122.36 592.854 122.808 599.587 124.555 606.038C126.303 612.489 129.314 618.528 133.415 623.805C137.516 629.082 142.625 633.492 148.444 636.778C156.112 641.098 164.755 643.392 173.556 643.444H335C337.998 606.445 331.391 569.298 315.818 535.602C300.245 501.906 276.234 472.803 246.111 451.111L271.778 406.667C309.794 432.777 340.344 468.349 360.414 509.872C380.484 551.395 389.379 597.434 386.222 643.444H523C526.185 573.744 511.022 504.429 479.026 442.425C447.029 380.421 399.32 327.9 340.667 290.111L392.556 201.222C393.712 199.285 395.586 197.883 397.771 197.321C399.956 196.759 402.275 197.083 404.222 198.222C410.111 201.444 629.667 584.555 633.778 589C634.502 590.299 634.871 591.765 634.846 593.252C634.821 594.739 634.405 596.193 633.638 597.467C632.871 598.741 631.782 599.79 630.48 600.508C629.177 601.226 627.709 601.587 626.222 601.555H573.333C574 615.704 574 629.815 573.333 643.889H626.444C633.189 643.933 639.874 642.639 646.115 640.082C652.356 637.525 658.027 633.755 662.802 628.991C667.576 624.228 671.357 618.564 673.928 612.329C676.499 606.094 677.807 599.411 677.778 592.667C677.784 583.759 675.406 575.011 670.889 567.333L444.444 179.667Z" fill="white"/>
</svg>
